<?xml version="1.0" encoding="utf-8"?>
<!-- Generator: Adobe Illustrator 21.1.0, SVG Export Plug-In . SVG Version: 6.00 Build 0)  -->
<svg version="1.1" xmlns="http://www.w3.org/2000/svg" xmlns:xlink="http://www.w3.org/1999/xlink" x="0px" y="0px" width="538.6px"
	 height="340.2px" viewBox="0 0 538.6 340.2" enable-background="new 0 0 538.6 340.2" xml:space="preserve">
<g id="Scheibe">
	<path fill="#3BBEE9" d="M388.3,168.4c0,68.6-55.2,123-123.8,123s-124.2-55.6-124.2-124.2S195.9,43,264.5,43S388.3,99.8,388.3,168.4
		z"/>
	<circle fill="#FFFFFF" cx="264.5" cy="167.2" r="98.4"/>
	<circle fill="#3BBEE9" cx="264.5" cy="167.2" r="73.3"/>
	<circle fill="#FFFFFF" cx="264.5" cy="167.2" r="45"/>
	<circle fill="#3BBEE9" cx="264.5" cy="167.2" r="17.6"/>
	<g>
		<g>
			<path fill="#005E8B" d="M305.9,53.2c18.2,5.8,35.2,18.7,48.2,32.2c22.4,23.4,33.9,54.3,31.7,86.7c-2.2,31.9-14.5,64.4-38.5,86.2
				c-17.1,15.6-39.2,24.9-61.9,28.8c-9.1,1.6-18.3,2.4-27.6,2.3c-3,0-6.1-0.2-9.1-0.4c-1.1-0.1-1.6-0.2-2.3-0.3
				c-0.4-0.1-1.9-0.5-1-0.1c-1.8-0.7-7.1,2-4.6,2.9c3.5,1.3,7.9,1.2,11.5,1.3c8.2,0.3,16.4-0.1,24.5-1.1
				c23.2-2.8,46.3-10.5,65.3-24.4c25.8-18.8,41-47.4,47-78.4c6.6-34.5-0.2-69.5-22.2-97.1c-14.4-18.1-35.3-34.7-57.6-41.9
				C307.5,49.3,302.6,52.2,305.9,53.2L305.9,53.2z"/>
		</g>
	</g>
</g>
<g id="Ebene_3">
	<path fill="#FFFFFF" d="M414.2,96l2.3-25c0,0,19.2-9.9,25.7-13c6.4-3.1,31.4-13,31.4-13s-0.3,5.1-1.5,11
		c-2.3,11.3-9.6,25.3-10.6,24.7c2.4,2.1,30.1,26.8,30.1,26.8s-24.4,7-32.3,8.8c-7.9,1.8-23.2,5.2-31.1,2.7
		c-4.9-5.8-12.8-15.3-12.8-15.3s-66.8,23.5-75.4,26.9c-4.4,1.7-24.2,10.8-41.7,19.5c-16.2,8.1-30.3,15.9-30.3,15.9l-3.5,0.4
		l-0.4-2.2l5.2-3.4l54-28.4l25.6-11.6L414.2,96z"/>
	<g>
		<g>
			<path fill="#3BBEE9" d="M423.1,72.9c-0.6,5.9-1.8,11.5-3.8,17.1c-0.4,1,2.5,0.6,2.9-0.4c2-5.5,3.3-11.2,3.8-17.1
				C426.1,71.4,423.2,71.9,423.1,72.9L423.1,72.9z"/>
		</g>
	</g>
	<g>
		<g>
			<path fill="#3BBEE9" d="M428,72.2c-1.6,5.7-3.2,11.4-4.8,17.1c-0.3,1.1,2.6,0.7,2.9-0.3c1.6-5.7,3.2-11.4,4.8-17.1
				C431.2,70.8,428.3,71.2,428,72.2L428,72.2z"/>
		</g>
	</g>
	<g>
		<g>
			<path fill="#3BBEE9" d="M433.4,66.6c-0.8,7.5-2.9,14.6-6.1,21.4c-0.4,0.8,2.5,0.5,2.9-0.4c3.2-6.8,5.2-13.9,6.1-21.4
				C436.4,65.1,433.5,65.6,433.4,66.6L433.4,66.6z"/>
		</g>
	</g>
	<g>
		<g>
			<path fill="#3BBEE9" d="M439.8,66c-2.1,6.3-4.1,12.5-6.2,18.8c-0.3,1,2.6,0.6,2.9-0.4c2.1-6.3,4.1-12.5,6.2-18.8
				C443,64.7,440.1,65.1,439.8,66L439.8,66z"/>
		</g>
	</g>
	<g>
		<g>
			<path fill="#3BBEE9" d="M444.8,60.9c-1.6,6.6-3.6,13.1-6,19.5c-0.4,1,2.5,0.6,2.9-0.3c2.4-6.4,4.5-12.9,6-19.5
				C447.9,59.5,445,59.9,444.8,60.9L444.8,60.9z"/>
		</g>
	</g>
	<g>
		<g>
			<path fill="#3BBEE9" d="M452.8,60.2c-3.1,6.3-6.3,12.7-9.4,19c-0.4,0.8,2.4,0.5,2.9-0.4c3.1-6.3,6.3-12.7,9.4-19
				C456.1,59.1,453.2,59.3,452.8,60.2L452.8,60.2z"/>
		</g>
	</g>
	<g>
		<g>
			<path fill="#3BBEE9" d="M465,55.6c-3.8,5.5-7.7,10.9-11.5,16.4c-0.8,1.1,2.1,0.9,2.7,0.1c3.8-5.5,7.7-10.9,11.5-16.4
				C468.4,54.6,465.5,54.8,465,55.6L465,55.6z"/>
		</g>
	</g>
	<g>
		<g>
			<path fill="#3BBEE9" d="M421.9,104.3c3.1,3.2,6.2,6.4,9.3,9.6c0.7,0.8,3.5-0.3,2.7-1.2c-3.1-3.2-6.2-6.4-9.3-9.6
				C423.9,102.4,421.1,103.4,421.9,104.3L421.9,104.3z"/>
		</g>
	</g>
	<g>
		<g>
			<path fill="#3BBEE9" d="M425,100.6c4.1,4.7,8.6,9.1,13.4,13.1c0.8,0.7,3.5-0.5,2.7-1.2c-4.8-4-9.3-8.4-13.4-13.1
				C427,98.6,424.2,99.7,425,100.6L425,100.6z"/>
		</g>
	</g>
	<g>
		<g>
			<path fill="#3BBEE9" d="M428.9,98.5c4.5,5.4,9.3,10.5,14.4,15.3c0.7,0.7,3.4-0.4,2.7-1.1c-5.1-4.9-9.8-10-14.4-15.3
				C431,96.7,428.2,97.7,428.9,98.5L428.9,98.5z"/>
		</g>
	</g>
	<g>
		<g>
			<path fill="#3BBEE9" d="M434.4,96.2c6.4,5.6,12.7,11.3,19.1,16.9c0.8,0.7,3.5-0.4,2.7-1.1c-6.4-5.6-12.7-11.3-19.1-16.9
				C436.4,94.4,433.7,95.5,434.4,96.2L434.4,96.2z"/>
		</g>
	</g>
	<g>
		<g>
			<path fill="#3BBEE9" d="M440.5,94.6c5.7,6.6,12.4,12.1,20,16.5c0.8,0.5,3.5-0.7,2.3-1.4c-7.5-4.3-14-9.7-19.6-16.2
				C442.6,92.7,439.8,93.7,440.5,94.6L440.5,94.6z"/>
		</g>
	</g>
	<g>
		<g>
			<path fill="#3BBEE9" d="M447.1,91.7c6.7,6.2,13.7,12.1,21,17.5c0.8,0.6,3.5-0.5,2.7-1.1c-7.3-5.4-14.3-11.3-21-17.5
				C449,89.9,446.3,91,447.1,91.7L447.1,91.7z"/>
		</g>
	</g>
	<g>
		<g>
			<path fill="#3BBEE9" d="M452.9,90.3c6.2,5.2,12.8,9.9,19.8,14c0.8,0.5,3.5-0.7,2.3-1.4c-6.8-4.1-13.3-8.7-19.4-13.8
				C454.8,88.6,452.2,89.7,452.9,90.3L452.9,90.3z"/>
		</g>
	</g>
</g>
<g id="Ebene_2">
	<g>
		<g>
			<path fill="#005E8B" d="M268.2,168.2c24-13.6,48.5-26,74.2-36.1c25.5-10,51.6-18.5,77.4-27.9c3.8-1.4,0.4-3.5-2.3-2.6
				c-26.2,9.5-52.7,18.2-78.6,28.4c-25.7,10.1-50.3,22.6-74.3,36.3C261.2,168.3,266.2,169.3,268.2,168.2L268.2,168.2z"/>
		</g>
	</g>
	<g>
		<g>
			<path fill="#005E8B" d="M267,164.9c23.7-14.1,47.8-27.1,73.2-38c25.2-10.8,51-20,76.5-29.9c3.8-1.5,0.4-3.6-2.3-2.6
				c-25.9,10.1-52.2,19.4-77.7,30.4c-25.4,10.9-49.6,24-73.3,38.2C260,165,265.1,166.1,267,164.9L267,164.9z"/>
		</g>
	</g>
	<g>
		<g>
			<path fill="#005E8B" d="M265,162.6c-1.4,0.2-3.1,0.8-3.9,2.1c-0.4,0.6-0.5,1.4-0.2,2.1c0.9,2.2,4.1,2,6,1.6
				c0.9-0.2,2.8-1.1,2.5-2.3c-0.3-1.2-2.5-0.9-3.3-0.7c0.5-0.1,0.7-0.1,0.3-0.1c0.5,0,0.6,0,0.3,0c-0.3,0-0.2,0,0.2,0
				c-0.2,0-0.2,0,0,0c0.2,0.1,0.2,0.1,0,0c-0.2-0.1-0.2-0.1,0,0c-0.1-0.1-0.2-0.2-0.3-0.4c0.1,0.1,0.1,0.2,0.2,0.4
				c-0.1-0.2-0.2-0.4-0.2-0.7c0,0.1,0,0.3,0,0.4c0-0.1,0-0.2,0-0.2c0,0,0-0.1,0-0.1c0-0.1,0-0.1,0,0c-0.1,0.1-0.1,0.1,0,0.1
				c0,0,0-0.1,0.1-0.1c0.1-0.2,0-0.1-0.3,0.3c-0.5,0.6-1.2,0.9-2.1,0.9c0.8-0.1,1.5-0.3,2.2-0.7c0.4-0.3,1-0.7,1.1-1.2
				C267.7,162.6,265.7,162.5,265,162.6L265,162.6z"/>
		</g>
	</g>
	<g>
		<g>
			<path fill="#005E8B" d="M417.2,95.2c0.8-6.8,0.9-13.8,1.9-20.6c0.4-2.6,0.4-2.9,2.4-4.4c1.4-1,3.4-1.8,4.9-2.7
				c3.3-1.8,6.7-3.5,10.1-5.2c12.5-6.1,25.4-11.5,38.6-16.1c3.8-1.4,0.3-3.2-2.3-2.2c-14.6,5.2-28.8,11.2-42.6,18.1
				c-3.6,1.8-7.2,3.7-10.7,5.6c-1.8,1-5,1.9-6,3.9c-0.5,1.1-0.3,4.4-0.3,5.6c-0.1,1.9-0.3,3.8-0.4,5.6c-0.4,4.4-0.8,8.7-1.3,13.1
				C411.1,98.1,417,97.1,417.2,95.2L417.2,95.2z"/>
		</g>
	</g>
	<g>
		<g>
			<path fill="#005E8B" d="M471,47.8c-2.1,11.3-3.7,21.4-9.9,31.3c-1.4,2.2,4.4,1.6,5.4,0c6.4-10.1,8.2-20.5,10.4-32.1
				C477.2,45,471.4,45.9,471,47.8L471,47.8z"/>
		</g>
	</g>
	<g>
		<g>
			<path fill="#005E8B" d="M412.9,104.2c4.2,5.7,8.4,11.4,12.7,17.1c1.1,1.5,6.7-0.4,5.4-2.2c-4.2-5.7-8.4-11.4-12.7-17.1
				C417.1,100.4,411.5,102.4,412.9,104.2L412.9,104.2z"/>
		</g>
	</g>
	<g>
		<g>
			<path fill="#005E8B" d="M425.3,121.5c12.8,1.4,26.1-1.6,38.6-4.5c6.2-1.4,12.3-3.1,18.5-4.7c2.3-0.6,4.6-1.3,6.9-1.9
				c0.8-0.2,3.5-0.6,2.5-0.7c2.2,0.1,6.2-3.2,2.3-3.3c-2.7-0.1-5.7,1.1-8.2,1.8c-5.6,1.5-11.1,3-16.7,4.4
				c-12.7,3.2-26.9,7.2-40.2,5.7c-1.2-0.1-3.3,0-4.1,1.1C424.2,120.3,423.8,121.3,425.3,121.5L425.3,121.5z"/>
		</g>
	</g>
	<g>
		<g>
			<path fill="#005E8B" d="M456.6,78.9c4.6,6,11,11.1,16.6,16.2c5.3,4.9,10.9,10.9,17.3,14.4c1.8,1,7.1-1.6,4.6-2.9
				c-6.4-3.5-12-9.7-17.4-14.6c-5.3-4.9-11.4-9.7-15.8-15.5C460.7,74.9,455.1,77,456.6,78.9L456.6,78.9z"/>
		</g>
	</g>
</g>
</svg>
